<?xml version="1.0" encoding="utf-8"?>
<!-- Generator: Adobe Illustrator 26.3.1, SVG Export Plug-In . SVG Version: 6.00 Build 0)  -->
<svg version="1.1" id="Слой_1" xmlns="http://www.w3.org/2000/svg" xmlns:xlink="http://www.w3.org/1999/xlink" x="0px" y="0px"
	 viewBox="0 0 1080 1080" style="enable-background:new 0 0 1080 1080;" xml:space="preserve">
<style type="text/css">
	.st0{fill-rule:evenodd;clip-rule:evenodd;}
</style>
<path class="st0" d="M1026.42,518.95C1015.63,268.31,813.49,64.99,561.64,53.93V0.01c281.46,11.14,507.56,237.42,518.42,518.95
	H1026.42z M324.67,518.95c9.17-103.28,90.77-184.12,193.69-196.17v196.17H324.67z M270.31,518.95h-54.37
	c9.62-163.2,139.57-293.97,302.41-304.92v54.38C385.48,279.16,279.75,385.73,270.31,518.95z M162.12,518.95h-54.11
	c10.93-221.72,188.66-399.56,410.34-410.67v54.88C326.74,173.93,173.27,327.31,162.12,518.95z M53.38,518.95H-0.26
	C13.76,237.37,236.81,11.04,518.35,0v53.93C266.42,64.89,64.17,267.69,53.38,518.95z M53.41,562.24
	c11.25,251.4,213.32,453.15,464.94,464.1v53.93C237.11,1069.24,11.09,843.4-0.22,562.24H53.41z M518.35,753.93
	c-101.42-9.26-182.12-90.51-193.22-191.69h193.22V753.93z M518.35,919.43v53.53c-221.68-11.11-399.43-187.82-410.34-410.72h54
	C172.5,755.63,326.28,910.08,518.35,919.43z M518.35,808.31v54.37c-161.34-10.85-290.37-139.34-302.08-300.44h55.84
	C282.1,693.38,386.97,797.68,518.35,808.31z M755.81,562.24c-11.13,101.48-92.31,181.88-194.17,191.76V562.24H755.81z
	 M810.31,562.24h54.36c-11.74,161.42-141.24,290.1-303.03,300.51v-54.37C693.47,798.18,798.82,693.7,810.31,562.24z M917.78,562.24
	h54.96c-10.92,221.99-188.34,399.99-411.1,410.73v-53.57C753.62,908.98,907.3,754.48,917.78,562.24z M972.74,518.95h-55.05
	c-11.15-191.58-164.52-344.92-356.04-355.78v-54.91C784.29,119.01,961.8,296.99,972.74,518.95z M561.64,322.71
	C665,332.73,748.3,415.36,756.27,518.95H561.64V322.71z M561.64,268.34v-54.38c163.28,10.5,293.72,141.48,303.35,304.99h-54.36
	C801.17,385.41,694.96,278.65,561.64,268.34z M1026.39,562.24h53.64c-11.31,281.1-237.24,506.9-518.38,518.02v-53.93
	C815.52,1015.29,1015.14,813.58,1026.39,562.24z"/>
</svg>
